<?xml version="1.0" encoding="us-ascii" standalone="no"?><svg xmlns="http://www.w3.org/2000/svg" xmlns:xlink="http://www.w3.org/1999/xlink" contentStyleType="text/css" height="1854px" preserveAspectRatio="none" style="width:509px;height:1854px;background:#FFFFFF;" version="1.1" viewBox="0 0 509 1854" width="509px" zoomAndPan="magnify"><defs/><g><!--cluster unicorn--><g id="cluster_unicorn"><path d="M8.5,977 L63.5,977 A3.75,3.75 0 0 1 66,979.5 L73,1000.6094 L283.5,1000.6094 A2.5,2.5 0 0 1 286,1003.1094 L286,1844.5 A2.5,2.5 0 0 1 283.5,1847 L8.5,1847 A2.5,2.5 0 0 1 6,1844.5 L6,979.5 A2.5,2.5 0 0 1 8.5,977 " fill="none" style="stroke:#000000;stroke-width:1.5;"/><line style="stroke:#000000;stroke-width:1.5;" x1="6" x2="73" y1="1000.6094" y2="1000.6094"/><text fill="#000000" font-family="sans-serif" font-size="14" font-weight="bold" lengthAdjust="spacing" textLength="54" x="10" y="993.5332">unicorn</text></g><!--class UnicornCallbackHandler--><g id="elem_UnicornCallbackHandler"><rect codeLine="51" fill="#F1F1F1" height="206.4844" id="UnicornCallbackHandler" rx="2.5" ry="2.5" style="stroke:#181818;stroke-width:0.5;" width="200" x="58" y="1013"/><ellipse cx="80.65" cy="1029" fill="#ADD1B2" rx="11" ry="11" style="stroke:#181818;stroke-width:1.0;"/><path d="M83.4156,1024.875 Q83.5719,1024.6563 83.7594,1024.5469 Q83.9469,1024.4375 84.1656,1024.4375 Q84.5406,1024.4375 84.775,1024.7031 Q85.0094,1024.9531 85.0094,1025.5625 L85.0094,1027.0156 Q85.0094,1027.625 84.775,1027.8906 Q84.5406,1028.1563 84.1656,1028.1563 Q83.8219,1028.1563 83.6188,1027.9531 Q83.4156,1027.7656 83.3063,1027.25 Q83.2594,1026.8906 83.0719,1026.7031 Q82.7438,1026.3281 82.1344,1026.1094 Q81.525,1025.8906 80.9,1025.8906 Q80.1344,1025.8906 79.4938,1026.2188 Q78.8688,1026.5469 78.3688,1027.2969 Q77.8844,1028.0469 77.8844,1029.0781 L77.8844,1030.1719 Q77.8844,1031.4063 78.775,1032.2344 Q79.6656,1033.0469 81.2594,1033.0469 Q82.1969,1033.0469 82.8531,1032.7969 Q83.2438,1032.6406 83.6656,1032.2031 Q83.9313,1031.9375 84.0719,1031.8594 Q84.2281,1031.7813 84.4313,1031.7813 Q84.7594,1031.7813 85.0094,1032.0469 Q85.275,1032.2969 85.275,1032.6406 Q85.275,1032.9844 84.9313,1033.3906 Q84.4313,1033.9688 83.6344,1034.2969 Q82.5563,1034.75 81.2594,1034.75 Q79.7438,1034.75 78.5406,1034.125 Q77.5563,1033.625 76.8688,1032.5625 Q76.1813,1031.4844 76.1813,1030.2031 L76.1813,1029.0469 Q76.1813,1027.7188 76.7906,1026.5781 Q77.4156,1025.4219 78.5094,1024.8125 Q79.6031,1024.1875 80.8375,1024.1875 Q81.5719,1024.1875 82.2125,1024.3594 Q82.8688,1024.5156 83.4156,1024.875 Z " fill="#000000"/><text fill="#000000" font-family="sans-serif" font-size="14" lengthAdjust="spacing" textLength="151" x="96.35" y="1034.7285">UnicornCallbackHandler</text><line style="stroke:#181818;stroke-width:0.5;" x1="59" x2="257" y1="1045" y2="1045"/><line style="stroke:#181818;stroke-width:0.5;" x1="59" x2="257" y1="1053" y2="1053"/><text fill="#000000" font-family="sans-serif" font-size="14" lengthAdjust="spacing" textLength="87" x="64" y="1071.5332">_Connected()</text><text fill="#000000" font-family="sans-serif" font-size="14" lengthAdjust="spacing" textLength="104" x="64" y="1089.1426">_Disconnected()</text><text fill="#000000" font-family="sans-serif" font-size="14" lengthAdjust="spacing" textLength="90" x="64" y="1106.752">_Terminated()</text><text fill="#000000" font-family="sans-serif" font-size="14" lengthAdjust="spacing" textLength="188" x="64" y="1124.3613">_OnNewChannelConnection()</text><text fill="#000000" font-family="sans-serif" font-size="14" lengthAdjust="spacing" textLength="126" x="64" y="1141.9707">_OnDataReceived()</text><text fill="#000000" font-family="sans-serif" font-size="14" lengthAdjust="spacing" textLength="103" x="64" y="1159.5801">_OnReadError()</text><text fill="#000000" font-family="sans-serif" font-size="14" lengthAdjust="spacing" textLength="73" x="64" y="1177.1895">_OnClose()</text><text fill="#000000" font-family="sans-serif" font-size="14" lengthAdjust="spacing" textLength="65" x="64" y="1194.7988">_OnTrial()</text><text fill="#000000" font-family="sans-serif" font-size="14" lengthAdjust="spacing" textLength="112" x="64" y="1212.4082">_OnTrialExpired()</text></g><!--class AppLib--><g id="elem_AppLib"><rect codeLine="74" fill="#F1F1F1" height="294.5313" id="AppLib" rx="2.5" ry="2.5" style="stroke:#181818;stroke-width:0.5;" width="248" x="22" y="1297"/><ellipse cx="119.75" cy="1313" fill="#ADD1B2" rx="11" ry="11" style="stroke:#181818;stroke-width:1.0;"/><path d="M122.5156,1308.875 Q122.6719,1308.6563 122.8594,1308.5469 Q123.0469,1308.4375 123.2656,1308.4375 Q123.6406,1308.4375 123.875,1308.7031 Q124.1094,1308.9531 124.1094,1309.5625 L124.1094,1311.0156 Q124.1094,1311.625 123.875,1311.8906 Q123.6406,1312.1563 123.2656,1312.1563 Q122.9219,1312.1563 122.7188,1311.9531 Q122.5156,1311.7656 122.4063,1311.25 Q122.3594,1310.8906 122.1719,1310.7031 Q121.8438,1310.3281 121.2344,1310.1094 Q120.625,1309.8906 120,1309.8906 Q119.2344,1309.8906 118.5938,1310.2188 Q117.9688,1310.5469 117.4688,1311.2969 Q116.9844,1312.0469 116.9844,1313.0781 L116.9844,1314.1719 Q116.9844,1315.4063 117.875,1316.2344 Q118.7656,1317.0469 120.3594,1317.0469 Q121.2969,1317.0469 121.9531,1316.7969 Q122.3438,1316.6406 122.7656,1316.2031 Q123.0313,1315.9375 123.1719,1315.8594 Q123.3281,1315.7813 123.5313,1315.7813 Q123.8594,1315.7813 124.1094,1316.0469 Q124.375,1316.2969 124.375,1316.6406 Q124.375,1316.9844 124.0313,1317.3906 Q123.5313,1317.9688 122.7344,1318.2969 Q121.6563,1318.75 120.3594,1318.75 Q118.8438,1318.75 117.6406,1318.125 Q116.6563,1317.625 115.9688,1316.5625 Q115.2813,1315.4844 115.2813,1314.2031 L115.2813,1313.0469 Q115.2813,1311.7188 115.8906,1310.5781 Q116.5156,1309.4219 117.6094,1308.8125 Q118.7031,1308.1875 119.9375,1308.1875 Q120.6719,1308.1875 121.3125,1308.3594 Q121.9688,1308.5156 122.5156,1308.875 Z " fill="#000000"/><text fill="#000000" font-family="sans-serif" font-size="14" lengthAdjust="spacing" textLength="44" x="140.25" y="1318.7285">AppLib</text><line style="stroke:#181818;stroke-width:0.5;" x1="23" x2="269" y1="1329" y2="1329"/><line style="stroke:#181818;stroke-width:0.5;" x1="23" x2="269" y1="1337" y2="1337"/><text fill="#000000" font-family="sans-serif" font-size="14" lengthAdjust="spacing" textLength="101" x="28" y="1355.5332">Unicorn_Open()</text><text fill="#000000" font-family="sans-serif" font-size="14" lengthAdjust="spacing" textLength="99" x="28" y="1373.1426">Unicorn_Write()</text><text fill="#000000" font-family="sans-serif" font-size="14" lengthAdjust="spacing" textLength="102" x="28" y="1390.752">Unicorn_Close()</text><text fill="#000000" font-family="sans-serif" font-size="14" lengthAdjust="spacing" textLength="130" x="28" y="1408.3613">Unicorn_Terminate()</text><text fill="#000000" font-family="sans-serif" font-size="14" lengthAdjust="spacing" textLength="4" x="28" y="1425.9707">&#160;</text><text fill="#000000" font-family="sans-serif" font-size="14" lengthAdjust="spacing" textLength="135" x="28" y="1443.5801">Unicorn_Connected()</text><text fill="#000000" font-family="sans-serif" font-size="14" lengthAdjust="spacing" textLength="152" x="28" y="1461.1895">Unicorn_Disconnected()</text><text fill="#000000" font-family="sans-serif" font-size="14" lengthAdjust="spacing" textLength="138" x="28" y="1478.7988">Unicorn_Terminated()</text><text fill="#000000" font-family="sans-serif" font-size="14" lengthAdjust="spacing" textLength="236" x="28" y="1496.4082">Unicorn_OnNewChannelConnection()</text><text fill="#000000" font-family="sans-serif" font-size="14" lengthAdjust="spacing" textLength="174" x="28" y="1514.0176">Unicorn_OnDataReceived()</text><text fill="#000000" font-family="sans-serif" font-size="14" lengthAdjust="spacing" textLength="151" x="28" y="1531.627">Unicorn_OnReadError()</text><text fill="#000000" font-family="sans-serif" font-size="14" lengthAdjust="spacing" textLength="121" x="28" y="1549.2363">Unicorn_OnClose()</text><text fill="#000000" font-family="sans-serif" font-size="14" lengthAdjust="spacing" textLength="113" x="28" y="1566.8457">Unicorn_OnTrial()</text><text fill="#000000" font-family="sans-serif" font-size="14" lengthAdjust="spacing" textLength="160" x="28" y="1584.4551">Unicorn_OnTrialExpired()</text></g><!--class Unicorn--><g id="elem_Unicorn"><rect codeLine="42" fill="#F1F1F1" height="153.6563" id="Unicorn" rx="2.5" ry="2.5" style="stroke:#181818;stroke-width:0.5;" width="132" x="110" y="1674"/><ellipse cx="148.4" cy="1690" fill="#ADD1B2" rx="11" ry="11" style="stroke:#181818;stroke-width:1.0;"/><path d="M151.1656,1685.875 Q151.3219,1685.6563 151.5094,1685.5469 Q151.6969,1685.4375 151.9156,1685.4375 Q152.2906,1685.4375 152.525,1685.7031 Q152.7594,1685.9531 152.7594,1686.5625 L152.7594,1688.0156 Q152.7594,1688.625 152.525,1688.8906 Q152.2906,1689.1563 151.9156,1689.1563 Q151.5719,1689.1563 151.3688,1688.9531 Q151.1656,1688.7656 151.0563,1688.25 Q151.0094,1687.8906 150.8219,1687.7031 Q150.4938,1687.3281 149.8844,1687.1094 Q149.275,1686.8906 148.65,1686.8906 Q147.8844,1686.8906 147.2438,1687.2188 Q146.6188,1687.5469 146.1188,1688.2969 Q145.6344,1689.0469 145.6344,1690.0781 L145.6344,1691.1719 Q145.6344,1692.4063 146.525,1693.2344 Q147.4156,1694.0469 149.0094,1694.0469 Q149.9469,1694.0469 150.6031,1693.7969 Q150.9938,1693.6406 151.4156,1693.2031 Q151.6813,1692.9375 151.8219,1692.8594 Q151.9781,1692.7813 152.1813,1692.7813 Q152.5094,1692.7813 152.7594,1693.0469 Q153.025,1693.2969 153.025,1693.6406 Q153.025,1693.9844 152.6813,1694.3906 Q152.1813,1694.9688 151.3844,1695.2969 Q150.3063,1695.75 149.0094,1695.75 Q147.4938,1695.75 146.2906,1695.125 Q145.3063,1694.625 144.6188,1693.5625 Q143.9313,1692.4844 143.9313,1691.2031 L143.9313,1690.0469 Q143.9313,1688.7188 144.5406,1687.5781 Q145.1656,1686.4219 146.2594,1685.8125 Q147.3531,1685.1875 148.5875,1685.1875 Q149.3219,1685.1875 149.9625,1685.3594 Q150.6188,1685.5156 151.1656,1685.875 Z " fill="#000000"/><text fill="#000000" font-family="sans-serif" font-size="14" lengthAdjust="spacing" textLength="48" x="167.6" y="1695.7285">Unicorn</text><line style="stroke:#181818;stroke-width:0.5;" x1="111" x2="241" y1="1706" y2="1706"/><line style="stroke:#181818;stroke-width:0.5;" x1="111" x2="241" y1="1714" y2="1714"/><text fill="#000000" font-family="sans-serif" font-size="14" lengthAdjust="spacing" textLength="119" x="116" y="1732.5332">registerCallbacks()</text><text fill="#000000" font-family="sans-serif" font-size="14" lengthAdjust="spacing" textLength="120" x="116" y="1750.1426">registerFunctions()</text><text fill="#000000" font-family="sans-serif" font-size="14" lengthAdjust="spacing" textLength="45" x="116" y="1767.752">Open()</text><text fill="#000000" font-family="sans-serif" font-size="14" lengthAdjust="spacing" textLength="43" x="116" y="1785.3613">Write()</text><text fill="#000000" font-family="sans-serif" font-size="14" lengthAdjust="spacing" textLength="46" x="116" y="1802.9707">Close()</text><text fill="#000000" font-family="sans-serif" font-size="14" lengthAdjust="spacing" textLength="74" x="116" y="1820.5801">Terminate()</text></g><!--class CallbackManager--><g id="elem_CallbackManager"><rect codeLine="63" fill="#F1F1F1" height="188.875" id="CallbackManager" rx="2.5" ry="2.5" style="stroke:#181818;stroke-width:0.5;" width="249" x="115.5" y="344"/><ellipse cx="180.75" cy="360" fill="#ADD1B2" rx="11" ry="11" style="stroke:#181818;stroke-width:1.0;"/><path d="M183.5156,355.875 Q183.6719,355.6563 183.8594,355.5469 Q184.0469,355.4375 184.2656,355.4375 Q184.6406,355.4375 184.875,355.7031 Q185.1094,355.9531 185.1094,356.5625 L185.1094,358.0156 Q185.1094,358.625 184.875,358.8906 Q184.6406,359.1563 184.2656,359.1563 Q183.9219,359.1563 183.7188,358.9531 Q183.5156,358.7656 183.4063,358.25 Q183.3594,357.8906 183.1719,357.7031 Q182.8438,357.3281 182.2344,357.1094 Q181.625,356.8906 181,356.8906 Q180.2344,356.8906 179.5938,357.2188 Q178.9688,357.5469 178.4688,358.2969 Q177.9844,359.0469 177.9844,360.0781 L177.9844,361.1719 Q177.9844,362.4063 178.875,363.2344 Q179.7656,364.0469 181.3594,364.0469 Q182.2969,364.0469 182.9531,363.7969 Q183.3438,363.6406 183.7656,363.2031 Q184.0313,362.9375 184.1719,362.8594 Q184.3281,362.7813 184.5313,362.7813 Q184.8594,362.7813 185.1094,363.0469 Q185.375,363.2969 185.375,363.6406 Q185.375,363.9844 185.0313,364.3906 Q184.5313,364.9688 183.7344,365.2969 Q182.6563,365.75 181.3594,365.75 Q179.8438,365.75 178.6406,365.125 Q177.6563,364.625 176.9688,363.5625 Q176.2813,362.4844 176.2813,361.2031 L176.2813,360.0469 Q176.2813,358.7188 176.8906,357.5781 Q177.5156,356.4219 178.6094,355.8125 Q179.7031,355.1875 180.9375,355.1875 Q181.6719,355.1875 182.3125,355.3594 Q182.9688,355.5156 183.5156,355.875 Z " fill="#000000"/><text fill="#000000" font-family="sans-serif" font-size="14" lengthAdjust="spacing" textLength="110" x="201.25" y="365.7285">CallbackManager</text><line style="stroke:#181818;stroke-width:0.5;" x1="116.5" x2="363.5" y1="376" y2="376"/><line style="stroke:#181818;stroke-width:0.5;" x1="116.5" x2="363.5" y1="384" y2="384"/><text fill="#000000" font-family="sans-serif" font-size="14" lengthAdjust="spacing" textLength="237" x="121.5" y="402.5332">transport_connection_in_trial_mode()</text><text fill="#000000" font-family="sans-serif" font-size="14" lengthAdjust="spacing" textLength="141" x="121.5" y="420.1426">transport_connected()</text><text fill="#000000" font-family="sans-serif" font-size="14" lengthAdjust="spacing" textLength="186" x="121.5" y="437.752">transport_connection_failed()</text><text fill="#000000" font-family="sans-serif" font-size="14" lengthAdjust="spacing" textLength="119" x="121.5" y="455.3613">transport_closing()</text><text fill="#000000" font-family="sans-serif" font-size="14" lengthAdjust="spacing" textLength="159" x="121.5" y="472.9707">transport_disconnected()</text><text fill="#000000" font-family="sans-serif" font-size="14" lengthAdjust="spacing" textLength="152" x="121.5" y="490.5801">transport_trial_expired()</text><text fill="#000000" font-family="sans-serif" font-size="14" lengthAdjust="spacing" textLength="123" x="121.5" y="508.1895">msg_client_joined()</text><text fill="#000000" font-family="sans-serif" font-size="14" lengthAdjust="spacing" textLength="104" x="121.5" y="525.7988">msg_client_left()</text></g><!--class DVCTransport--><g id="elem_DVCTransport"><rect codeLine="24" fill="#F1F1F1" height="294.5313" id="DVCTransport" rx="2.5" ry="2.5" style="stroke:#181818;stroke-width:0.5;" width="245" x="117.5" y="615"/><ellipse cx="190.25" cy="631" fill="#ADD1B2" rx="11" ry="11" style="stroke:#181818;stroke-width:1.0;"/><path d="M193.0156,626.875 Q193.1719,626.6563 193.3594,626.5469 Q193.5469,626.4375 193.7656,626.4375 Q194.1406,626.4375 194.375,626.7031 Q194.6094,626.9531 194.6094,627.5625 L194.6094,629.0156 Q194.6094,629.625 194.375,629.8906 Q194.1406,630.1563 193.7656,630.1563 Q193.4219,630.1563 193.2188,629.9531 Q193.0156,629.7656 192.9063,629.25 Q192.8594,628.8906 192.6719,628.7031 Q192.3438,628.3281 191.7344,628.1094 Q191.125,627.8906 190.5,627.8906 Q189.7344,627.8906 189.0938,628.2188 Q188.4688,628.5469 187.9688,629.2969 Q187.4844,630.0469 187.4844,631.0781 L187.4844,632.1719 Q187.4844,633.4063 188.375,634.2344 Q189.2656,635.0469 190.8594,635.0469 Q191.7969,635.0469 192.4531,634.7969 Q192.8438,634.6406 193.2656,634.2031 Q193.5313,633.9375 193.6719,633.8594 Q193.8281,633.7813 194.0313,633.7813 Q194.3594,633.7813 194.6094,634.0469 Q194.875,634.2969 194.875,634.6406 Q194.875,634.9844 194.5313,635.3906 Q194.0313,635.9688 193.2344,636.2969 Q192.1563,636.75 190.8594,636.75 Q189.3438,636.75 188.1406,636.125 Q187.1563,635.625 186.4688,634.5625 Q185.7813,633.4844 185.7813,632.2031 L185.7813,631.0469 Q185.7813,629.7188 186.3906,628.5781 Q187.0156,627.4219 188.1094,626.8125 Q189.2031,626.1875 190.4375,626.1875 Q191.1719,626.1875 191.8125,626.3594 Q192.4688,626.5156 193.0156,626.875 Z " fill="#000000"/><text fill="#000000" font-family="sans-serif" font-size="14" lengthAdjust="spacing" textLength="91" x="210.75" y="636.7285">DVCTransport</text><line style="stroke:#181818;stroke-width:0.5;" x1="118.5" x2="361.5" y1="647" y2="647"/><text fill="#000000" font-family="sans-serif" font-size="14" lengthAdjust="spacing" textLength="233" x="123.5" y="665.5332">CallbackManager: callback_manager</text><text fill="#000000" font-family="sans-serif" font-size="14" lengthAdjust="spacing" textLength="70" x="123.5" y="683.1426">Unicorn: lib</text><text fill="#000000" font-family="sans-serif" font-size="14" lengthAdjust="spacing" textLength="209" x="123.5" y="700.752">unicorn.CTYPE: connection_type</text><line style="stroke:#181818;stroke-width:0.5;" x1="118.5" x2="361.5" y1="707.8281" y2="707.8281"/><text fill="#000000" font-family="sans-serif" font-size="14" lengthAdjust="spacing" textLength="36" x="123.5" y="726.3613">Run()</text><text fill="#000000" font-family="sans-serif" font-size="14" lengthAdjust="spacing" textLength="89" x="123.5" y="743.9707">send_queue()</text><text fill="#000000" font-family="sans-serif" font-size="14" lengthAdjust="spacing" textLength="87" x="123.5" y="761.5801">_Connected()</text><text fill="#000000" font-family="sans-serif" font-size="14" lengthAdjust="spacing" textLength="104" x="123.5" y="779.1895">_Disconnected()</text><text fill="#000000" font-family="sans-serif" font-size="14" lengthAdjust="spacing" textLength="90" x="123.5" y="796.7988">_Terminated()</text><text fill="#000000" font-family="sans-serif" font-size="14" lengthAdjust="spacing" textLength="188" x="123.5" y="814.4082">_OnNewChannelConnection()</text><text fill="#000000" font-family="sans-serif" font-size="14" lengthAdjust="spacing" textLength="126" x="123.5" y="832.0176">_OnDataReceived()</text><text fill="#000000" font-family="sans-serif" font-size="14" lengthAdjust="spacing" textLength="103" x="123.5" y="849.627">_OnReadError()</text><text fill="#000000" font-family="sans-serif" font-size="14" lengthAdjust="spacing" textLength="73" x="123.5" y="867.2363">_OnClose()</text><text fill="#000000" font-family="sans-serif" font-size="14" lengthAdjust="spacing" textLength="65" x="123.5" y="884.8457">_OnTrial()</text><text fill="#000000" font-family="sans-serif" font-size="14" lengthAdjust="spacing" textLength="112" x="123.5" y="902.4551">_OnTrialExpired()</text></g><!--class GlobalPlugin--><g id="elem_GlobalPlugin"><rect codeLine="9" fill="#F1F1F1" height="259.3125" id="GlobalPlugin" rx="2.5" ry="2.5" style="stroke:#181818;stroke-width:0.5;" width="331" x="74.5" y="7"/><ellipse cx="195.75" cy="23" fill="#ADD1B2" rx="11" ry="11" style="stroke:#181818;stroke-width:1.0;"/><path d="M198.5156,18.875 Q198.6719,18.6563 198.8594,18.5469 Q199.0469,18.4375 199.2656,18.4375 Q199.6406,18.4375 199.875,18.7031 Q200.1094,18.9531 200.1094,19.5625 L200.1094,21.0156 Q200.1094,21.625 199.875,21.8906 Q199.6406,22.1563 199.2656,22.1563 Q198.9219,22.1563 198.7188,21.9531 Q198.5156,21.7656 198.4063,21.25 Q198.3594,20.8906 198.1719,20.7031 Q197.8438,20.3281 197.2344,20.1094 Q196.625,19.8906 196,19.8906 Q195.2344,19.8906 194.5938,20.2188 Q193.9688,20.5469 193.4688,21.2969 Q192.9844,22.0469 192.9844,23.0781 L192.9844,24.1719 Q192.9844,25.4063 193.875,26.2344 Q194.7656,27.0469 196.3594,27.0469 Q197.2969,27.0469 197.9531,26.7969 Q198.3438,26.6406 198.7656,26.2031 Q199.0313,25.9375 199.1719,25.8594 Q199.3281,25.7813 199.5313,25.7813 Q199.8594,25.7813 200.1094,26.0469 Q200.375,26.2969 200.375,26.6406 Q200.375,26.9844 200.0313,27.3906 Q199.5313,27.9688 198.7344,28.2969 Q197.6563,28.75 196.3594,28.75 Q194.8438,28.75 193.6406,28.125 Q192.6563,27.625 191.9688,26.5625 Q191.2813,25.4844 191.2813,24.2031 L191.2813,23.0469 Q191.2813,21.7188 191.8906,20.5781 Q192.5156,19.4219 193.6094,18.8125 Q194.7031,18.1875 195.9375,18.1875 Q196.6719,18.1875 197.3125,18.3594 Q197.9688,18.5156 198.5156,18.875 Z " fill="#000000"/><text fill="#000000" font-family="sans-serif" font-size="14" lengthAdjust="spacing" textLength="80" x="216.25" y="28.7285">GlobalPlugin</text><line style="stroke:#181818;stroke-width:0.5;" x1="75.5" x2="404.5" y1="39" y2="39"/><text fill="#000000" font-family="sans-serif" font-size="14" lengthAdjust="spacing" textLength="319" x="80.5" y="57.5332">DVCTransport: master_transport || slave_transport</text><line style="stroke:#181818;stroke-width:0.5;" x1="75.5" x2="404.5" y1="64.6094" y2="64.6094"/><text fill="#000000" font-family="sans-serif" font-size="14" lengthAdjust="spacing" textLength="101" x="80.5" y="83.1426">connect_slave()</text><text fill="#000000" font-family="sans-serif" font-size="14" lengthAdjust="spacing" textLength="111" x="80.5" y="100.752">connect_master()</text><text fill="#000000" font-family="sans-serif" font-size="14" lengthAdjust="spacing" textLength="4" x="80.5" y="118.3613">&#160;</text><text fill="#000000" font-family="sans-serif" font-size="14" lengthAdjust="spacing" textLength="237" x="80.5" y="135.9707">transport_connection_in_trial_mode()</text><text fill="#000000" font-family="sans-serif" font-size="14" lengthAdjust="spacing" textLength="141" x="80.5" y="153.5801">transport_connected()</text><text fill="#000000" font-family="sans-serif" font-size="14" lengthAdjust="spacing" textLength="186" x="80.5" y="171.1895">transport_connection_failed()</text><text fill="#000000" font-family="sans-serif" font-size="14" lengthAdjust="spacing" textLength="119" x="80.5" y="188.7988">transport_closing()</text><text fill="#000000" font-family="sans-serif" font-size="14" lengthAdjust="spacing" textLength="159" x="80.5" y="206.4082">transport_disconnected()</text><text fill="#000000" font-family="sans-serif" font-size="14" lengthAdjust="spacing" textLength="152" x="80.5" y="224.0176">transport_trial_expired()</text><text fill="#000000" font-family="sans-serif" font-size="14" lengthAdjust="spacing" textLength="123" x="80.5" y="241.627">msg_client_joined()</text><text fill="#000000" font-family="sans-serif" font-size="14" lengthAdjust="spacing" textLength="104" x="80.5" y="259.2363">msg_client_left()</text></g><!--reverse link CallbackManager to DVCTransport--><g id="link_CallbackManager_DVCTransport"><path codeLine="2" d="M240,539.36 C240,563.64 240,584.39 240,610.77 " fill="none" id="CallbackManager-backto-DVCTransport" style="stroke:#181818;stroke-width:1.0;"/><polygon fill="#181818" points="240,533.36,236,542.36,240,538.36,244,542.36,240,533.36" style="stroke:#181818;stroke-width:1.0;"/><text fill="#000000" font-family="sans-serif" font-size="13" lengthAdjust="spacing" textLength="111" x="241" y="577.4951">Sends callbacks to</text></g><!--reverse link GlobalPlugin to CallbackManager--><g id="link_GlobalPlugin_CallbackManager"><path codeLine="3" d="M240,272.03 C240,298.11 240,319.08 240,343.69 " fill="none" id="GlobalPlugin-backto-CallbackManager" style="stroke:#181818;stroke-width:1.0;"/><polygon fill="#181818" points="240,266.03,236,275.03,240,271.03,244,275.03,240,266.03" style="stroke:#181818;stroke-width:1.0;"/><text fill="#000000" font-family="sans-serif" font-size="13" lengthAdjust="spacing" textLength="111" x="241" y="310.4951">Sends callbacks to</text></g><!--reverse link DVCTransport to UnicornCallbackHandler--><g id="link_DVCTransport_UnicornCallbackHandler"><path codeLine="4" d="M189.8537,919.0973 C187.1837,929.1073 186.24,933.27 184,943 C178.86,965.37 174.48,989.62 170.86,1012.65 " fill="none" id="DVCTransport-backto-UnicornCallbackHandler" style="stroke:#181818;stroke-width:1.0;"/><polygon fill="#181818" points="191.4,913.3,185.2156,920.9651,190.1114,918.1311,192.9454,923.0269,191.4,913.3" style="stroke:#181818;stroke-width:1.0;"/><text fill="#000000" font-family="sans-serif" font-size="13" lengthAdjust="spacing" textLength="111" x="185" y="957.4951">Sends callbacks to</text></g><!--reverse link UnicornCallbackHandler to AppLib--><g id="link_UnicornCallbackHandler_AppLib"><path codeLine="5" d="M154.0181,1225.4059 C153.1081,1249.9959 152.35,1270.75 151.39,1296.91 " fill="none" id="UnicornCallbackHandler-backto-AppLib" style="stroke:#181818;stroke-width:1.0;"/><polygon fill="#181818" points="154.24,1219.41,149.9099,1228.2559,154.0551,1224.4066,157.9044,1228.5518,154.24,1219.41" style="stroke:#181818;stroke-width:1.0;"/><text fill="#000000" font-family="sans-serif" font-size="13" lengthAdjust="spacing" textLength="111" x="154" y="1263.4951">Sends callbacks to</text></g><!--reverse link AppLib to Unicorn--><g id="link_AppLib_Unicorn"><path codeLine="6" d="M161.0599,1598.1309 C163.6999,1624.8509 165.77,1645.82 168.12,1669.68 " fill="none" id="AppLib-backto-Unicorn" style="stroke:#181818;stroke-width:1.0;"/><polygon fill="#181818" points="160.47,1592.16,157.3743,1601.5097,160.9616,1597.1358,165.3355,1600.7231,160.47,1592.16" style="stroke:#181818;stroke-width:1.0;"/><text fill="#000000" font-family="sans-serif" font-size="13" lengthAdjust="spacing" textLength="111" x="165" y="1636.4951">Sends callbacks to</text></g><!--link DVCTransport to Unicorn--><g id="link_DVCTransport_Unicorn"><path codeLine="7" d="M364,719 C480.72,719 365.72,1762.5 249,1762.5 " fill="none" id="DVCTransport-to-Unicorn" style="stroke:#181818;stroke-width:1.0;"/><polygon fill="#181818" points="243,1762.5,252,1766.5,248,1762.5,252,1758.5,243,1762.5" style="stroke:#181818;stroke-width:1.0;"/><text fill="#000000" font-family="sans-serif" font-size="13" lengthAdjust="spacing" textLength="111" x="390" y="1263.4951">Sends callbacks to</text></g><!--SRC=[vLJ1ZjCm4BttAwmzmQ5yG8IGK5gM0x2hKa2SB3UPpGwuus0x2wZBl-CuSUAuoIvNjBsqUJFlPURvkRcGyY2Ax-y5YGeqUxbUiytdVAy5cLffop9syH6eDApeEmspwc9rATL1o6lPL4YUb2T22xo9Tijh20kbwSMdxZl8l1LKocMPHrYnyEkwVeU7nuJwhfc9_cMJBDirnDRhLoavowvgM9HO5L8Oms8lJolcFXDjTXJ6WkPsyEt-dXafxc24FAjGH51OxclFda-mJiE17XrulA-Z8exaz518VbHbe9yrGhbKQILk1Cgv3gaCKdM6bsYMPRjPu5UDUgWUJUN44CZoRmff3fTmOntw9vWRMxdgt4sYcWsdubpoYEyA9yWa7ZmGZZRVVxtUPYnQs_wkmRUu5FGJ6NVS_4S3JN2IvyccV7E-FT-3FYA92BcY3_0plnMkKUR3AyVgHbYnWmBmBkRiG9HRhPKUeTmT0eoF-zRUv74xc3tOb-IvCr13XMsSWf6crmducuRyb05lxq3_yuj66wQ89neMV-3boIq__S- -9XayFRLhEVtVFSKtZaTn2L0Scu35nWSiZb6BJmd9KW6V2SoPNbfuC3vZqqoAnc8Qfh4ojzeqMWaQ9Uml]--></g></svg>